<svg width="23" height="23" viewBox="0 0 23 23" fill="none" xmlns="http://www.w3.org/2000/svg">
<path fill-rule="evenodd" clip-rule="evenodd" d="M2.85615 2.14867C2.66211 1.95219 2.34554 1.9502 2.14905 2.14423C1.95257 2.33827 1.95058 2.65484 2.14461 2.85133L10.5911 11.4046L2.14423 19.9582C1.9502 20.1546 1.95219 20.4712 2.14867 20.6653C2.34516 20.8593 2.66173 20.8573 2.85577 20.6608L11.2938 12.1161L19.7319 20.6608C19.9259 20.8573 20.2425 20.8593 20.439 20.6653C20.6355 20.4712 20.6375 20.1546 20.4434 19.9582L11.9965 11.4046L20.4431 2.85133C20.6371 2.65484 20.6351 2.33827 20.4386 2.14423C20.2421 1.9502 19.9256 1.95219 19.7315 2.14867L11.2938 10.693L2.85615 2.14867Z" fill="#020202"/>
<path d="M2.14905 2.14423L1.09507 1.07694L1.09507 1.07694L2.14905 2.14423ZM2.85615 2.14867L3.92344 1.09469L2.85615 2.14867ZM2.14461 2.85133L1.07732 3.90531L1.07732 3.90531L2.14461 2.85133ZM10.5911 11.4046L11.6584 12.4585L12.6993 11.4046L11.6584 10.3506L10.5911 11.4046ZM2.14423 19.9582L1.07694 18.9042L1.07693 18.9042L2.14423 19.9582ZM2.14867 20.6653L1.09469 21.7326L1.0947 21.7326L2.14867 20.6653ZM2.85577 20.6608L3.92306 21.7148H3.92306L2.85577 20.6608ZM11.2938 12.1161L12.3611 11.0622L11.2938 9.98138L10.2265 11.0622L11.2938 12.1161ZM19.7319 20.6608L18.6646 21.7148H18.6646L19.7319 20.6608ZM20.439 20.6653L21.493 21.7326L21.493 21.7326L20.439 20.6653ZM20.4434 19.9582L21.5107 18.9042L21.5107 18.9042L20.4434 19.9582ZM11.9965 11.4046L10.9292 10.3506L9.88842 11.4046L10.9292 12.4585L11.9965 11.4046ZM20.4431 2.85133L19.3758 1.79735L19.3758 1.79735L20.4431 2.85133ZM20.4386 2.14423L21.4926 1.07694L21.4926 1.07693L20.4386 2.14423ZM19.7315 2.14867L18.6642 1.09469L18.6642 1.09469L19.7315 2.14867ZM11.2938 10.693L10.2265 11.7469L11.2938 12.8277L12.3611 11.7469L11.2938 10.693ZM3.20303 3.21153C2.81007 3.5996 2.17691 3.59562 1.78885 3.20265L3.92344 1.09469C3.14731 0.308756 1.88101 0.300807 1.09507 1.07694L3.20303 3.21153ZM3.21191 1.79735C3.59998 2.19031 3.596 2.82347 3.20303 3.21153L1.09507 1.07694C0.309136 1.85307 0.301186 3.11937 1.07732 3.90531L3.21191 1.79735ZM11.6584 10.3506L3.21191 1.79735L1.07732 3.90531L9.52383 12.4585L11.6584 10.3506ZM3.21153 21.0121L11.6584 12.4585L9.52383 10.3506L1.07694 18.9042L3.21153 21.0121ZM3.20266 19.598C3.59562 19.986 3.59959 20.6192 3.21154 21.0121L1.07693 18.9042C0.30081 19.6901 0.308755 20.9564 1.09469 21.7326L3.20266 19.598ZM1.78847 19.6068C2.17654 19.2139 2.80969 19.2099 3.20265 19.598L1.0947 21.7326C1.88063 22.5087 3.14693 22.5007 3.92306 21.7148L1.78847 19.6068ZM10.2265 11.0622L1.78847 19.6068L3.92306 21.7148L12.3611 13.1701L10.2265 11.0622ZM20.7992 19.6068L12.3611 11.0622L10.2265 13.1701L18.6646 21.7148L20.7992 19.6068ZM19.385 19.598C19.778 19.2099 20.4111 19.2139 20.7992 19.6068L18.6646 21.7148C19.4407 22.5007 20.707 22.5087 21.493 21.7326L19.385 19.598ZM19.3761 21.0121C18.9881 20.6192 18.992 19.986 19.385 19.598L21.493 21.7326C22.2789 20.9564 22.2869 19.6901 21.5107 18.9042L19.3761 21.0121ZM10.9292 12.4585L19.3761 21.0121L21.5107 18.9042L13.0638 10.3506L10.9292 12.4585ZM19.3758 1.79735L10.9292 10.3506L13.0638 12.4585L21.5103 3.90531L19.3758 1.79735ZM19.3846 3.21153C18.9917 2.82347 18.9877 2.19031 19.3758 1.79735L21.5103 3.90531C22.2865 3.11937 22.2785 1.85307 21.4926 1.07694L19.3846 3.21153ZM20.7988 3.20265C20.4107 3.59562 19.7776 3.59959 19.3846 3.21154L21.4926 1.07693C20.7067 0.30081 19.4404 0.308754 18.6642 1.09469L20.7988 3.20265ZM12.3611 11.7469L20.7988 3.20265L18.6642 1.09469L10.2265 9.63898L12.3611 11.7469ZM1.78885 3.20265L10.2265 11.7469L12.3611 9.63898L3.92344 1.09469L1.78885 3.20265Z" fill="#020202"/>
</svg>
